<svg display="none" xmlns="http://www.w3.org/2000/svg">
  <symbol id="twitter" viewBox="0 0 512 512">
	  <path d="M512,97.248c-19.04,8.352-39.328,13.888-60.48,16.576c21.76-12.992,38.368-33.408,46.176-58.016
			c-20.288,12.096-42.688,20.64-66.56,25.408C411.872,60.704,384.416,48,354.464,48c-58.112,0-104.896,47.168-104.896,104.992
			c0,8.32,0.704,16.32,2.432,23.936c-87.264-4.256-164.48-46.08-216.352-109.792c-9.056,15.712-14.368,33.696-14.368,53.056
			c0,36.352,18.72,68.576,46.624,87.232c-16.864-0.32-33.408-5.216-47.424-12.928c0,0.32,0,0.736,0,1.152
			c0,51.008,36.384,93.376,84.096,103.136c-8.544,2.336-17.856,3.456-27.52,3.456c-6.72,0-13.504-0.384-19.872-1.792
			c13.6,41.568,52.192,72.128,98.08,73.12c-35.712,27.936-81.056,44.768-130.144,44.768c-8.608,0-16.864-0.384-25.12-1.44
			C46.496,446.88,101.6,464,161.024,464c193.152,0,298.752-160,298.752-298.688c0-4.64-0.16-9.12-0.384-13.568
			C480.224,136.96,497.728,118.496,512,97.248z"/>
  </symbol>

  <symbol id="youtube" viewBox="0 0 90.677 90.677">
    <g>
      <path d="M82.287,45.907c-0.937-4.071-4.267-7.074-8.275-7.521c-9.489-1.06-19.098-1.065-28.66-1.06
        c-9.566-0.005-19.173,0-28.665,1.06c-4.006,0.448-7.334,3.451-8.27,7.521c-1.334,5.797-1.35,12.125-1.35,18.094
        c0,5.969,0,12.296,1.334,18.093c0.936,4.07,4.264,7.073,8.272,7.521c9.49,1.061,19.097,1.065,28.662,1.061
        c9.566,0.005,19.171,0,28.664-1.061c4.006-0.448,7.336-3.451,8.272-7.521c1.333-5.797,1.34-12.124,1.34-18.093
        C83.61,58.031,83.62,51.704,82.287,45.907z M28.9,50.4h-5.54v29.438h-5.146V50.4h-5.439v-4.822H28.9V50.4z M42.877,79.839h-4.629
        v-2.785c-1.839,2.108-3.585,3.136-5.286,3.136c-1.491,0-2.517-0.604-2.98-1.897c-0.252-0.772-0.408-1.994-0.408-3.796V54.311
        h4.625v18.795c0,1.084,0,1.647,0.042,1.799c0.111,0.718,0.462,1.082,1.082,1.082c0.928,0,1.898-0.715,2.924-2.166v-19.51h4.629
        L42.877,79.839L42.877,79.839z M60.45,72.177c0,2.361-0.159,4.062-0.468,5.144c-0.618,1.899-1.855,2.869-3.695,2.869
        c-1.646,0-3.234-0.914-4.781-2.824v2.474h-4.625V45.578h4.625v11.189c1.494-1.839,3.08-2.769,4.781-2.769
        c1.84,0,3.078,0.969,3.695,2.88c0.311,1.027,0.468,2.715,0.468,5.132V72.177z M77.907,67.918h-9.251v4.525
        c0,2.363,0.773,3.543,2.363,3.543c1.139,0,1.802-0.619,2.066-1.855c0.043-0.251,0.104-1.279,0.104-3.134h4.719v0.675
        c0,1.491-0.057,2.518-0.099,2.98c-0.155,1.024-0.519,1.953-1.08,2.771c-1.281,1.854-3.179,2.768-5.595,2.768
        c-2.42,0-4.262-0.871-5.599-2.614c-0.981-1.278-1.485-3.29-1.485-6.003v-8.941c0-2.729,0.447-4.725,1.43-6.015
        c1.336-1.747,3.177-2.617,5.54-2.617c2.321,0,4.161,0.87,5.457,2.617c0.969,1.29,1.432,3.286,1.432,6.015v5.285H77.907z"/>
      <path d="M70.978,58.163c-1.546,0-2.321,1.181-2.321,3.541v2.362h4.625v-2.362C73.281,59.344,72.508,58.163,70.978,58.163z"/>
      <path d="M53.812,58.163c-0.762,0-1.534,0.36-2.307,1.125v15.559c0.772,0.774,1.545,1.14,2.307,1.14
        c1.334,0,2.012-1.14,2.012-3.445V61.646C55.824,59.344,55.146,58.163,53.812,58.163z"/>
      <path d="M56.396,34.973c1.705,0,3.479-1.036,5.34-3.168v2.814h4.675V8.82h-4.675v19.718c-1.036,1.464-2.018,2.188-2.953,2.188
        c-0.626,0-0.994-0.37-1.096-1.095c-0.057-0.153-0.057-0.722-0.057-1.817V8.82h-4.66v20.4c0,1.822,0.156,3.055,0.414,3.836
        C53.854,34.363,54.891,34.973,56.396,34.973z"/>
      <path d="M23.851,20.598v14.021h5.184V20.598L35.271,0h-5.242l-3.537,13.595L22.812,0h-5.455c1.093,3.209,2.23,6.434,3.323,9.646
        C22.343,14.474,23.381,18.114,23.851,20.598z"/>
      <path d="M42.219,34.973c2.342,0,4.162-0.881,5.453-2.641c0.981-1.291,1.451-3.325,1.451-6.067v-9.034
        c0-2.758-0.469-4.774-1.451-6.077c-1.291-1.765-3.11-2.646-5.453-2.646c-2.33,0-4.149,0.881-5.443,2.646
        c-0.993,1.303-1.463,3.319-1.463,6.077v9.034c0,2.742,0.47,4.776,1.463,6.067C38.069,34.092,39.889,34.973,42.219,34.973z
        M39.988,16.294c0-2.387,0.724-3.577,2.231-3.577c1.507,0,2.229,1.189,2.229,3.577v10.852c0,2.387-0.722,3.581-2.229,3.581
        c-1.507,0-2.231-1.194-2.231-3.581V16.294z"/>
	  </g>
  </symbol>

  <symbol id="facebook" viewBox="0 0 24 24">
    <path d="m15.997 3.985h2.191v-3.816c-.378-.052-1.678-.169-3.192-.169-3.159 0-5.323 1.987-5.323
      5.639v3.361h-3.486v4.266h3.486v10.734h4.274v-10.733h3.345l.531-4.266h-3.877v-2.939c.001-1.233.333-2.077 
      2.051-2.077z"/>
  </symbol>

  <symbol id="trello" viewBox="0 0 24 24">
    <path d="m21 0h-18c-1.657 0-3 1.343-3 3v18c0 1.656 1.343 3 3 3h18c1.656 0 3-1.344
      3-3v-18c0-1.657-1.344-3-3-3zm-10.56 18.18c0 .795-.645 1.44-1.44 1.44h-4.44c-.795 0-1.44-.646-1.44-1.44v-13.62c0-.795.645-1.44
      1.44-1.44h4.44c.795 0 1.44.645 1.44 1.44zm10.44-6c0 .794-.645 1.44-1.44 1.44h-4.44c-.795 0-1.44-.646-1.44-1.44v-7.62c0-.795.646-1.44
      1.44-1.44h4.44c.795 0 1.44.645 1.44 1.44z"/>
  </symbol>

  <symbol id="american-express" viewBox="0 0 512 512">
        <g>
      <g>
        <polygon points="226.444,205.026 226.444,194.927 188.735,194.927 188.735,242.734 226.444,242.734 226.444,232.636 
          200.18,232.636 200.18,223.206 225.769,223.206 225.769,213.779 200.18,213.779 200.18,205.026 		"/>
      </g>
    </g>
    <g>
      <g>
        <rect x="285.71" y="194.93" width="11.448" height="47.14"/>
      </g>
    </g>
    <g>
      <g>
        <path d="M412.294,297.95c-2.694-2.692-6.734-4.039-12.793-4.039h-6.061c-1.347,0-2.69,0-4.04-0.675
          c-1.347-0.668-2.69-1.342-2.69-3.363c0-1.345,0-2.694,1.343-3.368c1.347-0.674,2.697-0.674,4.716-0.674h20.871v-11.446h-22.219
          c-12.124,0-16.162,7.408-16.162,14.143c0,14.812,12.794,14.139,23.568,14.812c2.019,0,3.368,0.675,4.042,1.347
          c0.674,0.675,1.343,2.016,1.343,3.365c0,1.348-0.669,2.693-1.343,3.367c-1.347,1.348-2.699,1.348-4.714,1.348h-21.551v10.1h21.551
          c11.444,0,17.507-4.717,17.507-14.816C415.662,303.338,414.315,299.971,412.294,297.95z"/>
      </g>
    </g>
    <g>
      <g>
        <path d="M459.898,305.635c-1.384-7.207-7.558-9.971-9.422-10.645c-2.038-0.716-4.263-1.079-7.207-1.079h-5.387h-0.669
          c-1.349,0-2.697,0-4.04-0.675c-2.023-0.668-2.699-1.342-2.699-3.363c0-1.345,0.676-2.694,1.352-3.368
          c1.347-0.674,2.69-0.674,4.714-0.674h0.674h5.385h14.815v-11.446h-22.221c-1.248,0-2.39,0.097-3.472,0.246
          c-9.032,1.717-12.69,7.497-12.69,13.898c0,14.812,12.796,14.139,23.568,14.812c2.019,0,3.364,0.675,4.038,1.347
          c0.674,0.675,1.347,2.016,1.347,3.365c0,1.348-0.674,2.693-1.347,3.367c-1.343,1.348-2.693,1.348-4.716,1.348H420.38v10.1h21.541
          c6.739,0,11.455-2.02,14.145-4.717c2.693-2.69,4.038-6.057,4.038-10.099C460.104,307.178,460.018,306.391,459.898,305.635z"/>
      </g>
    </g>
    <g>
      <g>
        <polygon points="369.876,285.156 369.876,275.058 332.167,275.058 332.167,322.868 369.876,322.868 369.876,312.768 
          343.611,312.768 343.611,303.341 369.201,303.341 369.201,293.911 343.611,293.911 343.611,285.156 		"/>
      </g>
    </g>
    <g>
      <g>
        <path d="M503.916,153.88c4.466,0,8.084-3.618,8.084-8.084v-31.459c0-20.619-16.774-37.394-37.393-37.394H37.393
          C16.775,76.942,0,93.716,0,114.336v283.326c0,20.62,16.775,37.395,37.393,37.395h437.214c20.619,0,37.393-16.775,37.393-37.395
          V172.026c0-4.466-3.618-8.084-8.084-8.084c-4.466,0-8.084,3.618-8.084,8.084v225.637c0,11.705-9.522,21.227-21.225,21.227H37.393
          c-11.704,0-21.225-9.522-21.225-21.227V114.336c0-11.704,9.521-21.226,21.225-21.226h437.214c11.703,0,21.225,9.522,21.225,21.226
          v31.459C495.832,150.261,499.45,153.88,503.916,153.88z"/>
      </g>
    </g>
    <g>
      <g>
        <path d="M161.797,194.927l-13.467,32.321l-0.216,0.698l-6.101-13.854l-8.496-18.491h-0.025l-0.317-0.675h-13.801h-4.039v45.115
          l-18.853-45.114H79.648l-19.922,47.138h11.836l2.478-5.311l2.236-4.79h22.898l4.714,10.101h22.893v-37.039l16.16,37.038h5.827
          v0.001h3.601h0.496l15.665-35.511v0.018l0.675-1.545v33v4.038h4.039h6.736v-47.138H161.797z M80.318,221.86l7.409-18.854
          l7.406,18.854H80.318z"/>
      </g>
    </g>
    <g>
      <g>
        <path d="M417.006,195.599v32.994l-19.527-32.994h-16.833v26.26v1.345v15.209v2.301l-4.964-11.879l-13.893-33.237H351.69h-6.735
          l-13.903,33.247l-1.586,3.79h-4.714c-3.364,0-6.057-0.674-8.08-2.697c-2.69-2.693-3.366-6.059-3.366-11.447
          c0-4.713,1.347-8.753,3.366-10.771c2.697-2.023,4.716-2.695,8.756-2.695h9.823h0.952v-2.22v-7.88h-10.775
          c-7.405,0.002-13.468,1.345-16.833,5.388c-4.716,5.385-6.059,12.123-6.059,18.857c0,8.753,2.017,14.14,6.059,18.18
          c4.039,4.038,10.776,5.383,16.159,5.383h12.796l4.04-10.771h23.57l1.962,4.906l2.078,5.195h11.446v0.028h11.377v-6.161l0.069,0.07
          v-29.629l21.547,35.691h14.817v-46.463H417.006z M345.631,221.859l8.079-18.854l7.411,18.854H345.631z"/>
      </g>
    </g>
    <g>
      <g>
        <path d="M277.595,231.421c0-0.037-0.004-0.069-0.004-0.107c-0.004-0.064-0.009-0.127-0.011-0.191
          c-0.009-0.516-0.038-1.004-0.083-1.474c-0.012-0.127-0.03-0.245-0.045-0.37c-0.04-0.346-0.086-0.686-0.146-1.008
          c-0.021-0.111-0.044-0.217-0.065-0.326c-0.07-0.337-0.148-0.662-0.236-0.972c-0.019-0.068-0.037-0.135-0.057-0.202
          c-0.111-0.37-0.232-0.723-0.364-1.055c-0.391-0.977-0.87-1.804-1.392-2.489c-0.185-0.259-0.404-0.528-0.659-0.798
          c-0.019-0.015-0.042-0.026-0.059-0.041c-2.017-2.096-4.261-2.549-4.261-2.549c3.307-1.326,7.907-5.258,8.064-12.424
          c-0.078-5.203-2.07-8.49-5.37-10.471c-3.368-2.02-7.411-2.02-13.467-2.02h-25.59v32.295v14.844h11.445v-10.091h-0.001v-6.741
          h12.123c3.174,0,5.091,0.011,6.099,0.664c0.698,0.297,1.343,0.718,1.979,1.354c0.848,1.129,1.328,2.495,1.615,3.899
          c0,0.001,0,0.001,0,0.002c0.296,1.457,0.382,2.946,0.4,4.264c0,0.006,0,0.013,0,0.019c0.006,0.434,0.009,0.856,0.009,1.243v5.389
          h10.099v-9.427c0-0.41-0.011-0.788-0.025-1.159C277.593,231.458,277.595,231.442,277.595,231.421z M265.394,213.838
          c-0.15,0.273-0.331,0.511-0.526,0.721c-0.091,0.105-0.157,0.177-0.157,0.177l-0.004-0.009c-0.17,0.157-0.354,0.298-0.556,0.4
          c-1.347,0.675-3.368,0.675-5.387,0.675h-13.47v-10.776h13.47c2.019,0,4.04,0,5.387,0.672c0.857,0.431,1.712,1.139,2.046,2.293
          l0.004-0.001c0.017,0.055,0.015,0.102,0.027,0.156c0.046,0.196,0.084,0.397,0.101,0.614
          C266.706,211.133,266.005,212.87,265.394,213.838z"/>
      </g>
    </g>
    <g>
      <g>
        <path d="M484.354,309.405c0-5.652-1.2-11.465-3.366-16.568v-26.53c0-0.335-0.011-0.67-0.029-1.001v-1.022
          c0-8.929-7.24-16.168-16.168-16.168h-10.065v-62.617c0-8.929-7.238-16.168-16.168-16.168h-30.304
          c-0.687,0-1.362,0.043-2.025,0.125c-0.663-0.083-1.334-0.125-2.015-0.125h-31.646c-0.687,0-1.362,0.043-2.025,0.125
          c-0.663-0.082-1.337-0.125-2.017-0.125H325.43c-4.501,0-8.733,0.395-12.741,1.195c-1.886-0.771-3.949-1.195-6.114-1.195h-30.303
          c-1.686,0-3.313,0.259-4.844,0.737c-2.529-0.49-5.181-0.737-7.949-0.737H155.066c-2.631,0-5.162,0.639-7.408,1.797
          c-2.246-1.159-4.777-1.797-7.408-1.797h-24.242h-10.101c-0.57,0-1.133,0.029-1.688,0.087c-0.554-0.058-1.115-0.087-1.679-0.087
          h-0.674H72.912c-6.482,0-12.339,3.872-14.877,9.837l-13.401,31.491l-15.415,34.185c-0.056,0.122-0.11,0.247-0.162,0.371
          l-0.285,0.675c-2.103,4.992-1.566,10.706,1.43,15.219c2.995,4.512,8.053,7.225,13.47,7.225h0.285H78.3h0.43
          c3.091,0,6.033-0.879,8.539-2.439c2.508,1.56,5.45,2.439,8.539,2.439h25.581v3.294v60.673c0,8.929,7.238,16.168,16.168,16.168
          h59.257c3.264,0,6.426-0.987,9.089-2.796c2.655,1.804,5.815,2.796,9.089,2.796h0.675h34.144h1.548h0.674h0.67
          c3.315,0,6.396-0.997,8.961-2.709c2.735,2.12,6.169,3.381,9.895,3.381h30.305c0.568,0,1.129-0.029,1.683-0.086
          c0.554,0.057,1.113,0.086,1.682,0.086h91.579c2.596,0,6.185-0.184,10.086-0.924c1.688,0.598,3.507,0.924,5.402,0.924h28.955
          c6.779,0,16.676-0.613,24.789-5.859c10.476-6.42,17.065-17.377,18.15-30.173c0.038-0.304,0.071-0.608,0.099-0.916
          c0.059-0.667,0.078-1.333,0.055-1.996C484.349,309.945,484.354,309.682,484.354,309.405z M134.861,244.083v4.275v3.13v0.675h-7.98
          H95.808l-4.04-10.774h-8.754l-4.041,10.099l-0.244,0.675h-0.43H43.957h-0.285l0.285-0.675l15.486-34.342l13.469-31.648h28.954
          h0.674l3.367,8.081v-8.081h10.101h24.242l7.406,16.835l7.411-16.835H263.48c5.389,0,9.427,1.348,12.794,4.041v-3.367v-0.674
          h30.303v4.041c5.385-2.693,11.448-4.041,18.855-4.041h43.094l4.042,8.081v-8.081h31.646l4.04,8.081v-8.081h30.303v62.617v3.374
          h-29.629h-0.674h-1.343l-6.063-10.099v3.366v3.359v3.374H361.79l-4.04-10.771h-9.425l-4.04,10.771h-20.202
          c-8.082,0-14.139-2.017-18.181-4.04v0.666v3.374h-48.484v-3.361v-11.453c0-2.021,0-2.021-1.345-2.021h-1.347v13.461v4.049h-0.675
          h-77.44h-15.487v-0.675v-3.374v-4.031l-3.366,8.08h-19.526L134.861,244.083z M468.102,311.445
          c-0.581,7.854-4.488,14.436-10.688,18.157c-4.038,2.696-10.103,3.368-16.162,3.368h-28.957v-1.35v-2.694
          c-3.368,2.694-9.425,4.043-15.488,4.043h-91.579v-1.35V317.48c0-2.02,0-2.02-2.021-2.02h-1.343v16.159v1.35h-30.305v-1.35v-16.833
          c-4.711,2.023-10.775,2.023-15.486,2.023h-3.37v8.754v6.734h-0.67h-0.674h-1.548h-9.72h-17.836h-6.587h-0.675l-8.44-9.74
          l-9.738,9.74h-59.257v-60.673v-3.328v-1.991v-2.023h53.195h4.588h2.819l8.755,10.102l9.429-10.102h40.398
          c3.758,0,11.008,0.586,14.711,3.374c0,0,0,0,0.001,0c0.279,0.21,0.542,0.429,0.778,0.665v-0.665v-1.351v-2.023h36.364
          c3.364,0,10.775,0.675,14.815,4.039v-0.682v-1.333v-2.023h55.213v3.374v0.665c2.699-2.69,8.756-4.039,13.469-4.039h30.977v3.374
          v0.665c0,0,0.02-0.017,0.061-0.047c0.002-0.002,0.004-0.004,0.006-0.005c0.124-0.095,0.417-0.316,0.838-0.608
          c0.002-0.002,0.004-0.003,0.006-0.004c1.651-1.146,5.262-3.374,8.383-3.374c1.939,0,9.007,0,16.051,0c8.204,0,16.374,0,16.374,0
          v2.023h0.029v30.301c2.021,3.366,3.366,8.081,3.366,12.795c0,0.44-0.019,0.872-0.04,1.306l0.041,0.039
          C468.164,310.98,468.131,311.213,468.102,311.445z"/>
      </g>
    </g>
    <g>
      <g>
        <path d="M275.037,284.491c-2.936-7.047-10.692-8.757-17.621-8.757h-35.688l-14.142,15.486l-0.342,0.354l-2.514-2.742
          l-11.958-13.098h-43.77v47.136h43.096l14.813-15.49l0.628,0.724l0.045-0.05l12.882,14.816h22.133v-7.408h0.001v-4.041v-4.042
          v-2.016h13.469c10.097,0,19.526-2.696,19.526-16.163C275.595,287.438,275.389,285.887,275.037,284.491z M186.713,313.443h-27.607
          V303.34h6.066h18.849v-9.429h-18.849h-6.066v-8.755h28.281l12.121,14.143L186.713,313.443z M231.157,318.824l-17.509-19.525
          l17.509-18.856V318.824z M257.417,297.278h-14.815v-12.121h14.139c4.042,0,6.737,2.023,7.411,6.063
          C264.152,295.258,261.457,297.278,257.417,297.278z"/>
      </g>
    </g>
    <g>
      <g>
        <path d="M325.375,311.68c-0.015-0.257-0.031-0.509-0.053-0.752c-0.017-0.181-0.033-0.359-0.053-0.534
          c-0.022-0.189-0.046-0.37-0.071-0.551c-0.027-0.196-0.054-0.395-0.086-0.582c-0.015-0.091-0.036-0.175-0.053-0.263
          c-0.152-0.799-0.347-1.528-0.594-2.191c-0.012-0.031-0.023-0.065-0.036-0.096c-0.088-0.231-0.181-0.456-0.28-0.673
          c-0.221-0.48-0.462-0.933-0.738-1.35c-0.674-1.347-2.695-2.698-6.063-4.04c3.369-1.348,8.082-5.389,8.082-12.794
          c0-5.387-2.693-8.755-6.059-10.777c-3.371-2.018-8.084-2.018-13.469-2.018h-25.501h-0.086v0.094v32.134v15.583h11.446v-10.128
          v-7.379h12.12c4.04,0,6.737,0,8.08,2.016c2.023,2.023,2.023,6.734,2.023,9.432v6.059h11.446v-9.425
          c0-0.456-0.013-0.89-0.029-1.315C325.393,311.976,325.384,311.829,325.375,311.68z M313.308,291.219
          c0,2.017-0.674,4.039-2.021,4.714c-1.343,0.674-3.366,0.674-5.385,0.674h-13.469v-10.776h13.469c2.019,0,4.042,0,5.385,0.674
          C312.635,287.18,313.983,288.529,313.308,291.219z"/>
      </g>
    </g>
  </symbol>

  <symbol id="paypal" viewBox="0 0 56.48 56.48">
        <g>
      <g>
        <path d="M12.121,24.861c-0.229-0.15-0.57-0.226-1.018-0.226l-0.383,0.002c-0.251-0.002-0.508,0.2-0.557,0.444l-0.353,1.52
          c-0.055,0.246,0.102,0.447,0.356,0.447h0.286c0.635,0,1.127-0.129,1.48-0.389c0.353-0.258,0.534-0.625,0.526-1.1
          C12.46,25.245,12.347,25.01,12.121,24.861z"/>
      </g>
    </g>
    <g>
      <g>
        <path d="M18.371,28.364c-0.069,0.002-0.598,0.062-0.866,0.095c-0.3,0.043-0.56,0.103-0.771,0.174l-0.496,0.338
          c-0.116,0.146-0.171,0.332-0.171,0.571l0.226,0.438c0.153,0.086,0.379,0.128,0.667,0.128c0.19,0,0.396-0.046,0.612-0.134
          l0.46-0.237l0.182-0.242c0.072-0.282,0.221-0.909,0.238-0.987L18.371,28.364z"/>
      </g>
    </g>
    <g>
      <g>
        <path d="M55.026,9.939H1.454C0.65,9.939,0,10.59,0,11.393v33.694c0,0.803,0.65,1.455,1.454,1.455h53.572
          c0.804,0,1.454-0.651,1.454-1.454V11.393C56.48,10.59,55.83,9.939,55.026,9.939z M13.484,27.695
          c-0.796,0.586-1.904,0.878-3.336,0.88H9.814c-0.257,0-0.508,0.202-0.561,0.444l-0.402,1.738c-0.057,0.248-0.308,0.446-0.562,0.446
          h-1.17c-0.254,0-0.413-0.204-0.353-0.446l1.645-7.163c0.06-0.246,0.309-0.443,0.563-0.447l2.444-0.001
          c0.528,0.005,0.985,0.037,1.381,0.109c0.39,0.074,0.73,0.198,1.018,0.374c0.276,0.174,0.499,0.407,0.639,0.689
          c0.156,0.282,0.225,0.635,0.225,1.055C14.681,26.333,14.286,27.109,13.484,27.695z M20.746,26.781l-0.044,0.301l-0.854,3.692
          c-0.05,0.222-0.27,0.411-0.503,0.438l-0.016,0.006H19.16h-0.898h-0.021l-0.004-0.004c-0.223-0.021-0.361-0.21-0.313-0.438v-0.002
          l0.002-0.007l0.044-0.188l-0.006-0.007l-0.441,0.291l-0.48,0.268l-0.566,0.194c-0.174,0.042-0.419,0.067-0.735,0.067
          c-0.499,0-0.917-0.137-1.233-0.42c-0.314-0.289-0.476-0.658-0.476-1.11c0-0.48,0.111-0.886,0.334-1.224
          c0.231-0.336,0.561-0.598,1.007-0.794c0.415-0.189,0.914-0.329,1.484-0.408c0.582-0.084,1.062-0.145,1.727-0.187l0.168-0.104
          l0.021-0.165c0-0.254-0.118-0.429-0.353-0.532c-0.238-0.1-0.596-0.15-1.064-0.15c-0.318-0.004-0.718,0.061-1.097,0.147
          c-0.397,0.09-0.506,0.149-0.7,0.207c-0.09,0.031-0.307,0.046-0.226-0.33l0.143-0.589c0,0,0.07-0.445,0.515-0.542
          c0.215-0.048,0.249-0.057,0.6-0.111c0.475-0.073,0.945-0.11,1.416-0.11c0.953,0,1.651,0.124,2.092,0.373
          c0.443,0.248,0.669,0.636,0.667,1.157L20.746,26.781z M22.627,34.055l-1.212,0.002c-0.252,0-0.335-0.2-0.181-0.446l1.037-1.808
          c0,0,0.083-0.103,0.009-0.693c-0.16-1.066-0.956-5.598-0.956-5.598c-0.058-0.245,0.098-0.446,0.35-0.446l1.049-0.002
          c0.321,0,0.579,0.211,0.637,0.459l0.522,3.143l0.194,0.002c0.163-0.289,1.839-3.165,1.839-3.165
          c0.16-0.242,0.484-0.447,0.736-0.447c0,0,1.127,0.003,1.404,0c0.416-0.006-0.032,0.668-0.032,0.668l-4.664,7.887
          C23.209,33.857,22.877,34.055,22.627,34.055z M34.744,27.726c-0.799,0.583-1.912,0.878-3.344,0.878h-0.334
          c-0.252-0.004-0.504,0.201-0.562,0.443l-0.396,1.741c-0.058,0.243-0.314,0.443-0.562,0.44l-1.173,0.003
          c-0.249,0.001-0.413-0.201-0.353-0.444l1.646-7.167c0.06-0.243,0.306-0.441,0.56-0.445l2.447-0.002
          c0.525,0.002,0.987,0.039,1.375,0.108c0.395,0.072,0.735,0.196,1.019,0.373c0.279,0.179,0.498,0.408,0.644,0.692
          c0.15,0.28,0.223,0.634,0.225,1.054C35.936,26.359,35.535,27.133,34.744,27.726z M42.002,26.786l-0.043,0.303l-0.856,3.689
          c-0.048,0.223-0.269,0.412-0.499,0.44l-0.016,0.006H40.42c-0.242,0-0.752,0-0.899,0H39.5l-0.002-0.006
          c-0.227-0.021-0.367-0.209-0.312-0.438l-0.002-0.003l0.005-0.004l0.039-0.188l-0.007-0.009l-0.438,0.295L38.3,31.138l-0.565,0.191
          c-0.174,0.045-0.42,0.064-0.733,0.069c-0.5,0-0.914-0.142-1.232-0.423c-0.316-0.286-0.479-0.657-0.479-1.111
          c0-0.477,0.111-0.885,0.335-1.221c0.229-0.336,0.564-0.597,1.006-0.795c0.418-0.19,0.92-0.328,1.487-0.408
          c0.578-0.084,1.058-0.145,1.728-0.186l0.168-0.106l0.018-0.165c0-0.252-0.116-0.429-0.354-0.531
          c-0.238-0.101-0.596-0.151-1.062-0.151c-0.32-0.002-0.721,0.062-1.099,0.147c-0.395,0.092-0.502,0.149-0.695,0.207
          c-0.098,0.029-0.309,0.046-0.229-0.33l0.143-0.588c0,0,0.067-0.446,0.514-0.542c0.217-0.047,0.252-0.058,0.602-0.109
          c0.472-0.076,0.945-0.113,1.416-0.113c0.949,0,1.646,0.126,2.091,0.375c0.446,0.248,0.669,0.634,0.669,1.155L42.002,26.786z
          M45.752,23.679l-1.568,7.101l-0.055,0.084c-0.093,0.2-0.291,0.362-0.506,0.362h-1.088l-0.02-0.025
          c-0.207-0.032-0.342-0.199-0.293-0.417l-0.002-0.005l0.047-0.205l1.466-6.662l0.052-0.232l0.059-0.091
          c0.095-0.196,0.289-0.355,0.504-0.355h1.047c0.255,0,0.408,0.199,0.354,0.443L45.752,23.679z M47.83,22.911h-0.392v0.521
          l0.003,0.14l0.027,0.094l0.062,0.06l0.12,0.019l0.098-0.014l0.073-0.022h0.009v0.171l-0.117,0.023l-0.111,0.009l-0.266-0.095
          l-0.091-0.3v-0.606h-0.132v-0.162h0.132v-0.325h0.193v0.325h0.392V22.911z M49.725,23.15v0.737h-0.189v-0.65l-0.012-0.139
          l-0.025-0.11l-0.066-0.065L49.306,22.9l-0.159,0.041l-0.163,0.103l0.003,0.056l0.002,0.06v0.729h-0.19v-0.65l-0.008-0.141
          l-0.027-0.109L48.7,22.924l-0.129-0.023l-0.157,0.039l-0.159,0.099v0.85h-0.188V22.75h0.188v0.127l0.182-0.116l0.188-0.042
          l0.198,0.047l0.122,0.136l0.21-0.141l0.205-0.042l0.277,0.113l0.09,0.318H49.725z"/>
      </g>
    </g>
    <g>
      <g>
        <path d="M39.628,28.37c-0.069-0.001-0.596,0.061-0.86,0.095c-0.303,0.043-0.562,0.102-0.771,0.174
          c-0.214,0.084-0.388,0.197-0.501,0.338c-0.112,0.146-0.168,0.332-0.168,0.572l0.229,0.437c0.146,0.087,0.369,0.129,0.666,0.129
          c0.187,0,0.393-0.046,0.608-0.133l0.457-0.237l0.188-0.242c0.07-0.285,0.222-0.91,0.234-0.988L39.628,28.37z"/>
      </g>
    </g>
    <g>
      <g>
        <path d="M33.372,24.888c-0.231-0.151-0.567-0.225-1.016-0.227l-0.381,0.002c-0.252-0.002-0.508,0.202-0.56,0.445l-0.354,1.519
          c-0.057,0.244,0.106,0.448,0.359,0.446h0.291c0.633,0,1.124-0.13,1.478-0.384c0.35-0.261,0.528-0.625,0.526-1.104
          C33.709,25.273,33.6,25.038,33.372,24.888z"/>
      </g>
    </g>
  </symbol>

  <symbol id="visa" viewBox="0 0 16.207 16.207">
      <g>
    <g>
      <path d="M15.279,2.431H0.928C0.416,2.431,0,2.847,0,3.359v9.489c0,0.512,0.416,0.928,0.928,0.928h14.351
        c0.512,0,0.928-0.416,0.928-0.928v-9.49C16.207,2.847,15.791,2.431,15.279,2.431z M15.255,12.823L0.952,12.847L0.928,3.382
        l14.327-0.024V12.823z"/>
      <path d="M2.303,6.792l0.481,3.446h1.181l2.202-4.267H4.926L3.991,7.95C3.859,8.231,3.744,8.485,3.645,8.718
        c-0.018-0.243-0.038-0.479-0.062-0.72L3.394,5.972H1.506l1.963,1.553L2.303,6.792z"/>
      <polygon points="7.015,10.239 7.824,5.972 6.713,5.972 5.903,10.239 		"/>
      <path d="M7.666,9.987c0.26,0.195,0.718,0.311,1.225,0.311c1.051,0,1.757-0.594,1.757-1.477
        c0-0.483-0.282-0.866-0.861-1.169C9.463,7.47,9.266,7.348,9.266,7.194c0-0.144,0.151-0.299,0.509-0.299
        c0.349,0,0.615,0.137,0.666,0.164l0.126,0.069l0.355-0.95l-0.093-0.052c-0.266-0.147-0.596-0.218-1.009-0.218
        c-1.006,0-1.709,0.588-1.709,1.43c0,0.61,0.48,0.949,0.902,1.177c0.396,0.206,0.474,0.323,0.474,0.456
        c0,0.256-0.276,0.347-0.513,0.347c-0.309,0-0.631-0.087-0.884-0.239L7.965,9.005L7.589,9.931L7.666,9.987z"/>
      <path d="M11.72,10.239l0.477-1.043h0.962l0.084,1.043h1.154l-0.5-4.267h-1.291l-2.076,4.267H11.72z
        M12.88,7.603c0.044-0.096,0.089-0.206,0.135-0.319c0.008,0.101,0.015,0.196,0.021,0.278l0.065,0.729h-0.54L12.88,7.603z"/>
    </g>
  </g>
  </symbol>

  <symbol id="discover" viewBox="0 0 56.48 56.48">
        <g>
      <g>
        <path d="M48.935,23.346c-0.222,0-0.403,0.186-0.403,0.418s0.183,0.417,0.403,0.417c0.222,0,0.404-0.188,0.404-0.417
          S49.159,23.346,48.935,23.346z M49.027,24.057l-0.164-0.227v0.226h-0.139v-0.583h0.188c0.142,0,0.222,0.064,0.222,0.181
          c0,0.081-0.045,0.141-0.127,0.163l0.19,0.24H49.027z"/>
      </g>
    </g>
    <g>
      <g>
        <path d="M48.889,23.581h-0.025v0.152h0.023c0.069-0.001,0.106-0.025,0.106-0.077C48.993,23.606,48.958,23.581,48.889,23.581z"/>
      </g>
    </g>
    <g>
      <g>
        <path d="M55.026,9.939H1.454C0.65,9.939,0,10.59,0,11.393v33.694c0,0.803,0.65,1.455,1.454,1.455h53.572
          c0.804,0,1.454-0.651,1.454-1.454V11.393C56.48,10.59,55.83,9.939,55.026,9.939z M48.941,23.255c0.274,0,0.502,0.231,0.502,0.509
          c0,0.28-0.228,0.509-0.502,0.509c-0.283,0-0.511-0.227-0.511-0.509C48.43,23.481,48.655,23.255,48.941,23.255z M44.088,23.387
          h1.922c1.497,0,2.353,0.718,2.353,1.962c0,1.018-0.539,1.685-1.515,1.884l2.093,2.799h-1.595l-1.793-2.67h-0.168v2.67H44.09
          h-0.002V23.387z M39.555,23.387h3.674v1.126H40.85v1.475h2.293v1.125H40.85v1.794h2.379v1.125h-3.674V23.387z M33.999,23.385
          l1.771,4.463l1.795-4.463h1.403L36.097,30.2h-0.694l-2.82-6.814H33.999z M26.196,25.357c0.535-1.269,1.793-2.159,3.256-2.159
          c1.953,0,3.535,1.582,3.535,3.533c0,0.245-0.024,0.484-0.072,0.714c-0.01,0.051-0.026,0.102-0.038,0.154
          c-0.017,0.061-0.029,0.123-0.05,0.184c-0.444,1.438-1.789,2.483-3.375,2.483c-1.951,0-3.533-1.582-3.533-3.533
          C25.919,26.245,26.016,25.781,26.196,25.357z M23.902,23.239c0.557,0,1.026,0.119,1.594,0.408v1.524
          c-0.537-0.527-1.006-0.748-1.625-0.748c-1.215,0-2.17,1.007-2.17,2.282c0,1.345,0.925,2.292,2.23,2.292
          c0.587,0,1.046-0.21,1.564-0.729v1.524c-0.588,0.28-1.066,0.388-1.625,0.388c-1.973,0-3.506-1.514-3.506-3.466
          C20.364,24.783,21.938,23.237,23.902,23.239z M11.779,29.265c-0.639,0.53-1.365,0.768-2.369,0.768H7.517v-6.645h1.9
          c2.101,0,3.566,1.366,3.566,3.327C12.983,27.692,12.536,28.635,11.779,29.265z M14.876,30.031h-1.295v-6.645h1.295V30.031z
          M17.664,30.193c-0.985,0-1.701-0.389-2.299-1.266l0.838-0.807c0.297,0.577,0.797,0.887,1.414,0.887
          c0.578,0,1.006-0.4,1.006-0.938c0-0.279-0.129-0.519-0.389-0.688c-0.13-0.08-0.388-0.199-0.896-0.378
          c-1.217-0.438-1.633-0.907-1.633-1.822c0-1.087,0.894-1.903,2.07-1.903c0.728,0,1.394,0.249,1.953,0.736l-0.678,0.889
          c-0.338-0.379-0.658-0.539-1.045-0.539c-0.559,0-0.967,0.318-0.967,0.737c0,0.357,0.229,0.549,1.008,0.836
          c1.472,0.538,1.91,1.016,1.91,2.071C19.956,29.296,19.011,30.19,17.664,30.193z M55.465,45.533H20.196
          C43.01,41.599,55.465,32.81,55.465,32.81V45.533z"/>
      </g>
    </g>
    <g>
      <g>
        <path d="M10.93,25.051c-0.427-0.387-0.935-0.538-1.771-0.538H8.811v4.394h0.348c0.835,0,1.365-0.161,1.771-0.528
          c0.449-0.399,0.719-1.036,0.719-1.674C11.649,26.068,11.379,25.45,10.93,25.051z"/>
      </g>
    </g>
    <g>
      <g>
        <path d="M45.782,24.432h-0.397v2.012h0.377c0.828,0,1.266-0.359,1.266-1.028C47.028,24.771,46.59,24.432,45.782,24.432z"/>
      </g>
    </g>
  </symbol>
</svg>