<svg width="80" height="80" viewBox="0 0 80 80" fill="none" xmlns="http://www.w3.org/2000/svg">
<path fill-rule="evenodd" clip-rule="evenodd" d="M40.8209 10.1354L62.7221 17.599C63.257 17.7859 63.6953 18.3982 63.6824 18.9654V50.0576C63.6824 50.6312 63.315 51.3789 62.8703 51.727L40.6533 69.0391C40.4342 69.2131 40.1377 69.3033 39.8412 69.3033C39.5447 69.3033 39.2547 69.2131 39.0291 69.0391L16.8121 51.727C16.3674 51.3725 16 50.6248 16 50.0576V18.9654C16 18.3982 16.4383 17.7795 16.9732 17.599L38.8744 10.1354C39.1387 10.0451 39.4932 10 39.8477 10C40.2021 10 40.5566 10.0451 40.8209 10.1354ZM39.8477 63.7861L59.0547 48.8201V21.26L39.8477 14.7115L20.6406 21.26V48.8201L39.8477 63.7861Z" fill="#ED4C5C"/>
<path fill-rule="evenodd" clip-rule="evenodd" d="M32.8158 40.7312L27.8207 45.7264C27.7247 45.8233 27.6709 45.9541 27.6709 46.0905C27.6709 46.2269 27.7247 46.3578 27.8207 46.4547L30.0121 48.6461C30.2119 48.8459 30.5406 48.8459 30.7404 48.6461L35.7355 43.651C39.3256 45.9133 44.1209 45.4814 47.2469 42.3555C50.8756 38.7268 50.8756 32.8486 47.2469 29.2199C43.6182 25.5912 37.74 25.5912 34.1113 29.2199C30.9854 32.3459 30.5535 37.1477 32.8158 40.7312ZM44.3271 32.1396C42.3162 30.1223 39.0484 30.1223 37.0311 32.1396C35.0137 34.157 35.0201 37.4184 37.0311 39.4357C39.042 41.4531 42.3098 41.4531 44.3271 39.4357C46.3445 37.4248 46.3445 34.157 44.3271 32.1396Z" fill="#ED4C5C"/>
</svg>
