<svg width="80" height="80" viewBox="0 0 80 80" fill="none" xmlns="http://www.w3.org/2000/svg">
<path d="M28.6353 40.6696C28.6353 39.2157 27.6253 38.3472 25.8443 38.3472C25.1174 38.3472 24.6257 38.418 24.3675 38.4868V43.1565C24.6735 43.2253 25.0485 43.2502 25.5631 43.2502C27.4627 43.2502 28.6353 42.288 28.6353 40.6696Z" fill="#ED4C5C"/>
<path d="M39.6657 38.3931C38.868 38.3931 38.3514 38.4639 38.0454 38.5346V48.8801C38.3514 48.9509 38.8431 48.9509 39.2888 48.9509C42.5256 48.9739 44.6375 47.1909 44.6375 43.4147C44.6624 40.1301 42.7379 38.3931 39.6657 38.3931V38.3931Z" fill="#ED4C5C"/>
<path d="M60.7985 32.3155H59.5015V26.0581C59.5004 26.0184 59.4966 25.9787 59.49 25.9395C59.4921 25.6878 59.4031 25.4439 59.2394 25.2527L48.827 13.3616L48.8193 13.3539C48.6871 13.2104 48.5186 13.1053 48.3315 13.0497L48.2741 13.0306C48.1947 13.0108 48.1131 13.0005 48.0312 13H22.4411C21.2722 13 20.3234 13.9508 20.3234 15.1177V32.3155H19.0264C17.3544 32.3155 16 33.6699 16 35.3419V51.082C16 52.752 17.3563 54.1084 19.0264 54.1084H20.3234V64.8843C20.3234 66.0512 21.2722 67.002 22.4411 67.002H57.3838C58.5508 67.002 59.5015 66.0512 59.5015 64.8843V54.1084H60.7985C62.4705 54.1084 63.8249 52.752 63.8249 51.082V35.3419C63.8249 33.6699 62.4686 32.3155 60.7985 32.3155V32.3155ZM22.4411 15.1177H46.9714V25.9529C46.9714 26.5383 47.4458 27.0108 48.0312 27.0108H57.3857V32.3155H22.4411V15.1177ZM48.4387 43.2961C48.4387 46.3225 47.3368 48.4115 45.8083 49.7008C44.144 51.0839 41.6112 51.742 38.514 51.742C36.6603 51.742 35.348 51.6234 34.4547 51.5086V35.977C35.7689 35.7666 37.481 35.6499 39.2888 35.6499C42.2903 35.6499 44.2377 36.1893 45.7624 37.339C47.4056 38.5576 48.4387 40.505 48.4387 43.2961V43.2961ZM20.8227 51.5794V35.977C21.9245 35.7895 23.4741 35.6499 25.6549 35.6499C27.8606 35.6499 29.4331 36.0726 30.4871 36.9163C31.4953 37.714 32.1744 39.0282 32.1744 40.5758C32.1744 42.1254 31.6598 43.4377 30.7205 44.3291C29.5 45.4788 27.6941 45.9953 25.5822 45.9953C25.1135 45.9953 24.6907 45.9724 24.3636 45.9246V51.5794H20.8227ZM57.3838 64.3104H22.4411V54.1084H57.3838V64.3104ZM60.4523 38.6992H54.3747V42.3128H60.0525V45.2225H54.3747V51.5794H50.7878V35.7666H60.4523V38.6992Z" fill="#ED4C5C"/>
</svg>
