<svg width="80" height="80" viewBox="0 0 80 80" fill="none" xmlns="http://www.w3.org/2000/svg">
<path d="M61.0258 32.9597H59.7512V26.8182C59.7501 26.7791 59.7464 26.7402 59.7399 26.7017C59.7417 26.455 59.6535 26.2161 59.4918 26.0296L49.2608 14.3567L49.2533 14.3492C49.192 14.2831 49.1225 14.2251 49.0465 14.1765L48.9788 14.1352C48.9138 14.0991 48.8451 14.0701 48.7739 14.0488L48.7175 14.03C48.6394 14.0106 48.5592 14.0005 48.4787 14H23.33C22.1813 14 21.2488 14.9332 21.2488 16.0785V32.9578H19.9742C18.331 32.9578 17 34.2871 17 35.9281V51.3768C17 53.0159 18.3329 54.3471 19.9742 54.3471H21.2488V64.9215C21.2488 66.0669 22.1813 67 23.33 67H57.67C58.8168 67 59.7512 66.0669 59.7512 64.9215V54.3471H61.0258C62.6671 54.3471 64 53.0177 64 51.3768V35.9281C64 34.289 62.669 32.9597 61.0258 32.9597ZM23.33 16.0785H47.4372V26.713C47.4372 27.2876 47.9034 27.7513 48.4787 27.7513H57.6719V32.9578H23.33V16.0785ZM38.9001 44.5574C36.3734 43.6562 34.7058 42.2593 34.7058 40.0531C34.7058 37.464 36.8942 35.5057 40.4568 35.5057C42.1939 35.5057 43.4328 35.8436 44.3352 36.2698L43.5682 39.0167C42.5851 38.5385 41.5051 38.2925 40.4116 38.2976C38.9227 38.2976 38.2008 38.9942 38.2008 39.7602C38.2008 40.7291 39.0336 41.1553 41.0189 41.8988C43.7035 42.8901 44.9424 44.2852 44.9424 46.4256C44.9424 48.9716 43.0042 51.1327 38.8324 51.1327C37.0953 51.1327 35.3826 50.6595 34.5254 50.1864L35.2247 47.3719C36.4053 47.9739 37.7082 48.2976 39.0336 48.3182C40.6128 48.3182 41.4475 47.6629 41.4475 46.6734C41.4475 45.7272 40.7275 45.1883 38.9001 44.5574ZM20.9912 43.521C20.9912 38.3633 24.6892 35.5038 29.2877 35.5038C31.0699 35.5038 32.4216 35.8624 33.0308 36.1572L32.3088 38.8815C31.3956 38.4986 30.4134 38.3069 29.423 38.3183C26.7177 38.3183 24.599 39.9611 24.599 43.3389C24.599 46.3561 26.4019 48.2713 29.4456 48.2713C30.5059 48.2713 31.6339 48.0704 32.3314 47.7756L32.8296 50.4774C32.2205 50.7684 30.7766 51.1308 28.9512 51.1308C23.6966 51.1327 20.9912 47.845 20.9912 43.521ZM57.67 64.362H23.33V54.3489H57.67V64.362ZM54.8914 50.9074H50.8776L46.0084 35.7291H49.774L51.6221 42.1485C52.1391 43.9716 52.6128 45.684 52.9738 47.5747H53.0415C53.4259 45.7704 53.8844 43.9827 54.4158 42.2161L56.3559 35.731H60.0069L54.8914 50.9074Z" fill="#ED4C5C"/>
</svg>
