<svg display="none" xmlns="http://www.w3.org/2000/svg">
 <symbol id="facebook-icon" viewBox="0 0 14 14">
    <path d="M10.5 1.16663H8.75C7.97645 1.16663 7.23458 1.47392 6.6876 2.0209C6.14062 2.56788 5.83333 3.30974 5.83333 4.08329V5.83329H4.08333V8.16663H5.83333V12.8333H8.16666V8.16663H9.91666L10.5 5.83329H8.16666V4.08329C8.16666 3.92858 8.22812 3.78021 8.33752 3.67081C8.44692 3.56142 8.59529 3.49996 8.75 3.49996H10.5V1.16663Z"/>
 <symbol>

 <symbol id="linkedin-icon" viewBox="0 0 14 14">
    <path d="M9.33334 4.66663C10.2616 4.66663 11.1518 5.03538 11.8082 5.69175C12.4646 6.34813 12.8333 7.23837 12.8333 8.16663V12.25H10.5V8.16663C10.5 7.85721 10.3771 7.56046 10.1583 7.34167C9.9395 7.12288 9.64276 6.99996 9.33334 6.99996C9.02392 6.99996 8.72717 7.12288 8.50838 7.34167C8.28959 7.56046 8.16667 7.85721 8.16667 8.16663V12.25H5.83334V8.16663C5.83334 7.23837 6.20208 6.34813 6.85846 5.69175C7.51484 5.03538 8.40508 4.66663 9.33334 4.66663Z"/>
    <path d="M1.16667 5.25H3.5V12.25H1.16667V5.25Z"/>
    <path d="M2.33333 3.49996C2.97767 3.49996 3.5 2.97763 3.5 2.33329C3.5 1.68896 2.97767 1.16663 2.33333 1.16663C1.689 1.16663 1.16667 1.68896 1.16667 2.33329C1.16667 2.97763 1.689 3.49996 2.33333 3.49996Z"/>
 <symbol>

 <symbol id="twitter-icon" viewBox="0 0 14 14">
    <path d="M13.4167 1.75001C12.8581 2.14403 12.2396 2.4454 11.585 2.64251C11.2337 2.23855 10.7668 1.95224 10.2474 1.8223C9.7281 1.69235 9.18137 1.72504 8.68122 1.91594C8.18106 2.10684 7.75159 2.44674 7.45091 2.88967C7.15022 3.33261 6.99283 3.8572 7 4.39251V4.97584C5.97487 5.00242 4.95908 4.77506 4.04309 4.31402C3.1271 3.85297 2.33935 3.17254 1.75 2.33334C1.75 2.33334 -0.583331 7.58334 4.66667 9.91667C3.46531 10.7322 2.03418 11.141 0.583336 11.0833C5.83333 14 12.25 11.0833 12.25 4.37501C12.2495 4.21252 12.2338 4.05044 12.2033 3.89084C12.7987 3.30371 13.2188 2.56242 13.4167 1.75001Z"/>
 <symbol>
 </svg>